HIERARCHY
ROOT Hips
{
	OFFSET -3.958830 18.904000 13.208200
	CHANNELS 6 Xposition Yposition Zposition Zrotation Yrotation Xrotation 
	JOINT LHipJoint
	{
		OFFSET 0.000000 0.000000 0.000000
		CHANNELS 3 Zrotation Yrotation Xrotation
		JOINT LeftUpLeg
		{
			OFFSET 1.800000 -1.400000 0.085000
			CHANNELS 3 Zrotation Yrotation Xrotation
			JOINT LeftLeg
			{
				OFFSET 2.215000 -6.000000 0.000000
				CHANNELS 3 Zrotation Yrotation Xrotation
				JOINT LeftFoot
				{
					OFFSET 2.500000 -6.900000 0.000000
					CHANNELS 3 Zrotation Yrotation Xrotation
					JOINT LeftToeBase
					{
						OFFSET 0.200000 -0.500000 1.950000
						CHANNELS 3 Zrotation Yrotation Xrotation
						End Site
						{
							OFFSET 0.000000 0.000000 0.000000
						}
					}
				}
			}
		}
	}
	JOINT RHipJoint
	{
		OFFSET 0.000000 0.000000 0.000000
		CHANNELS 3 Zrotation Yrotation Xrotation
		JOINT RightUpLeg
		{
			OFFSET -1.800000 -1.400000 0.085000
			CHANNELS 3 Zrotation Yrotation Xrotation
			JOINT RightLeg
			{
				OFFSET -2.215000 -6.000000 0.000000
				CHANNELS 3 Zrotation Yrotation Xrotation
				JOINT RightFoot
				{
					OFFSET -2.500000 -6.900000 0.000000
					CHANNELS 3 Zrotation Yrotation Xrotation
					JOINT RightToeBase
					{
						OFFSET -0.200000 -0.500000 1.950000
						CHANNELS 3 Zrotation Yrotation Xrotation
						End Site
						{
							OFFSET 0.000000 0.000000 0.000000
						}
					}
				}
			}
		}
	}
	JOINT LowerBack
	{
		OFFSET 0.000000 0.000000 0.000000
		CHANNELS 3 Zrotation Yrotation Xrotation
		JOINT Spine
		{
			OFFSET -0.087000 1.940000 -0.288900
			CHANNELS 3 Zrotation Yrotation Xrotation
			JOINT Spine1
			{
				OFFSET 0.000000 1.950000 0.060000
				CHANNELS 3 Zrotation Yrotation Xrotation
				JOINT Neck
				{
					OFFSET 0.000000 0.000000 0.000000
					CHANNELS 3 Zrotation Yrotation Xrotation
					JOINT Neck1
					{
						OFFSET 0.000000 1.600000 0.340000
						CHANNELS 3 Zrotation Yrotation Xrotation
						JOINT Head
						{
							OFFSET 0.000000 1.667000 -0.240000
							CHANNELS 3 Zrotation Yrotation Xrotation
							End Site
							{
								OFFSET 0.000000 0.000000 0.000000
							}
						}
					}
				}
				JOINT LeftShoulder
				{
					OFFSET 0.000000 0.000000 0.000000
					CHANNELS 3 Zrotation Yrotation Xrotation
					JOINT LeftArm
					{
						OFFSET 2.700000 1.550000 -0.730000
						CHANNELS 3 Zrotation Yrotation Xrotation
						JOINT LeftForeArm
						{
							OFFSET 5.450000 0.000000 0.000000
							CHANNELS 3 Zrotation Yrotation Xrotation
							JOINT LeftHand
							{
								OFFSET 3.450000 0.000000 0.000000
								CHANNELS 3 Zrotation Yrotation Xrotation
								JOINT LeftHandIndex1
								{
									OFFSET 0.750000 0.000000 0.000000
									CHANNELS 3 Zrotation Yrotation Xrotation
									End Site
									{
										OFFSET 0.000000 0.000000 0.000000
									}
								}
							}
						}
					}
				}
				JOINT RightShoulder
				{
					OFFSET 0.000000 0.000000 0.000000
					CHANNELS 3 Zrotation Yrotation Xrotation
					JOINT RightArm
					{
						OFFSET -2.700000 1.550000 -0.730000
						CHANNELS 3 Zrotation Yrotation Xrotation
						JOINT RightForeArm
						{
							OFFSET -5.450000 0.000000 0.000000
							CHANNELS 3 Zrotation Yrotation Xrotation
							JOINT RightHand
							{
								OFFSET -3.450000 0.000000 0.000000
								CHANNELS 3 Zrotation Yrotation Xrotation
								JOINT RightHandIndex1
								{
									OFFSET -0.750000 0.000000 0.000000
									CHANNELS 3 Zrotation Yrotation Xrotation
									End Site
									{
										OFFSET 0.000000 0.000000 0.000000
									}
								}
							}
						}
					}
				}
			}
		}
	}
}
MOTION
Frames: 14
Frame Time: 0.016667
-0.014230 17.104250 -1.477880 -2.134359 6.705390 2.067641 -15.809475 14.658293 3.403325 4.087194 -0.780331 -1.387210 -7.109123 4.998068 3.119518 -0.198103 4.747650 3.347508 0.376880 -0.132650 0.166890 17.719453 -9.169415 2.772563 -0.778978 0.689038 -36.972189 1.971428 -5.155204 24.251343 0.036630 -2.689436 3.687551 -0.062800 0.468250 0.143970 -1.944397 -7.009494 -7.606414 -2.216717 -12.145221 13.441860 -7.175116 -11.790868 1.269931 4.684087 -6.718964 -9.228306 -15.930896 8.801231 25.739274 5.060210 1.778660 -3.403040 -11.620004 3.920626 -1.908771 -65.121529 -14.967818 6.676562 -60.711991 -24.110282 12.424631 -3.577276 3.481070 0.559200 0.184780 -0.275860 0.331570 4.013671 -3.868323 9.030996 54.543996 -30.417124 -19.039469 53.967140 28.729535 7.035567 1.561523 -1.684216 -0.283710 0.228300 -0.035610 -0.213210 
-0.026360 17.054690 -1.445180 -1.185534 5.375726 3.529862 -15.867014 14.606506 3.393440 2.989770 -0.644313 -1.897657 -7.407865 4.933269 2.770337 -0.215250 4.730262 3.368401 0.376150 -0.121310 0.155440 17.695079 -9.099519 2.671499 -1.688119 0.679692 -34.022737 2.818226 -3.778438 15.717911 0.178380 -1.899192 3.996803 -0.029160 0.516490 0.153720 -1.803247 -7.017788 -7.418323 -2.658667 -11.861213 10.551938 -7.004970 -11.479788 2.284684 4.233565 -6.237072 -8.501351 -14.595081 8.951635 24.954362 4.417840 2.498400 -2.096090 -11.134265 5.018352 -2.204973 -65.719401 -15.640117 8.023441 -61.533181 -23.770129 12.911284 -3.641699 3.518164 0.499570 0.245060 -0.319960 0.343970 4.222314 -5.287701 8.467758 55.087984 -30.191402 -18.714139 52.585052 27.871196 6.410058 1.552215 -1.709103 -0.295410 0.227840 -0.035130 -0.206030 
-0.033170 17.018180 -1.426090 -0.901027 3.654751 4.414257 -15.879750 14.486870 3.362406 2.468935 -0.544038 -1.927860 -7.829236 4.895922 2.167420 -0.229894 4.766403 3.373000 0.369420 -0.113270 0.138850 17.723125 -8.980879 2.671403 -1.768368 0.895512 -31.530978 3.209751 -2.836652 9.361036 0.234550 -1.613936 4.135038 -0.000900 0.562500 0.149560 -1.803899 -6.964831 -7.327344 -1.887631 -11.716425 8.884585 -7.375162 -11.263220 2.801282 4.002040 -6.176453 -7.962837 -14.205610 9.249759 24.098957 3.834930 3.087770 -1.518240 -11.369672 5.907155 -2.631452 -65.592251 -16.129617 8.980667 -61.894886 -24.021016 13.512320 -3.693045 3.516715 0.465870 0.292350 -0.355850 0.352900 4.748395 -6.357703 8.144115 55.476297 -30.596041 -18.656225 52.082926 27.883873 6.267681 1.525011 -1.718724 -0.318600 0.248870 -0.028180 -0.201590 
-0.035190 16.996220 -1.415750 -0.922688 1.528450 5.067247 -15.853377 14.335805 3.311979 2.040983 -0.439523 -1.859564 -7.975924 4.823842 1.581484 -0.239294 4.779579 3.375542 0.373260 -0.110100 0.132530 17.789575 -8.880180 2.732492 -1.125313 1.234093 -29.813801 3.080542 -2.203738 4.923076 0.245709 -1.564827 4.172460 0.016060 0.590750 0.163730 -1.919301 -6.810707 -7.282319 -0.419197 -11.554783 7.882168 -8.258312 -11.064707 2.807975 3.901312 -6.278820 -7.498598 -14.206371 9.676229 23.427480 3.467480 3.567270 -0.917410 -11.875576 6.628342 -2.980883 -65.026960 -16.257750 9.453377 -61.473969 -24.584146 13.938305 -3.733504 3.534494 0.440720 0.326580 -0.380610 0.359710 5.292807 -7.235986 7.653967 56.033934 -30.129510 -18.349068 50.127059 26.067766 5.186348 1.541603 -1.696969 -0.323840 0.244920 -0.022680 -0.200510 
-0.035940 16.984260 -1.415350 -0.541512 -0.972952 5.523935 -15.840975 14.196973 3.274589 0.995402 -0.215202 -1.632685 -7.909573 4.714748 1.000544 -0.250833 4.749912 3.384892 0.404790 -0.057090 0.140280 17.845386 -8.794518 2.768767 -0.806714 1.344986 -28.922709 3.134016 -1.856006 2.069525 0.229791 -1.603424 4.157618 0.063460 0.607110 0.168630 -2.004518 -6.680376 -7.199546 0.344849 -11.456365 7.006532 -9.158856 -10.958401 3.102303 3.570103 -6.543472 -6.990244 -14.529666 10.795717 22.459652 3.661930 4.352200 -1.208430 -12.311985 7.569840 -3.341727 -64.159459 -16.336307 9.689474 -61.140274 -25.821283 14.687948 -3.760053 3.547829 0.415890 0.344780 -0.385840 0.372890 6.231945 -8.221401 7.092742 56.146417 -30.055509 -18.083265 48.607145 25.068063 4.537089 1.547215 -1.688083 -0.322350 0.259010 -0.031940 -0.192310 
-0.034310 16.981760 -1.418320 -0.483058 -3.530912 5.951990 -15.801881 14.087225 3.232858 0.128045 -0.015771 -1.648353 -7.646008 4.614343 0.614974 -0.271045 4.696628 3.408952 0.411770 -0.035010 0.126330 17.916197 -8.743928 2.808094 -0.242295 1.501600 -28.734985 3.353272 -1.707619 0.666661 0.225781 -1.629869 4.154896 0.088440 0.638010 0.162180 -2.157103 -6.541824 -7.119391 1.655437 -11.474327 6.388306 -9.987688 -10.994376 3.132520 3.196984 -6.997992 -6.842617 -15.359560 12.161921 21.608376 4.138720 5.053820 -1.140490 -11.485209 8.201256 -3.240320 -64.305546 -15.961628 9.158619 -59.884203 -25.455787 13.945628 -3.782777 3.534003 0.403480 0.360480 -0.399510 0.385220 6.012512 -8.685620 6.458799 57.149372 -28.816749 -18.008709 44.755938 20.958479 2.461572 1.612047 -1.587889 -0.333670 0.284450 -0.028280 -0.182240 
-0.041460 16.984020 -1.423790 -0.348746 -5.690800 6.173438 -15.784718 14.029324 3.225471 -0.482145 0.090368 -1.667517 -7.762995 4.588781 0.423391 -0.261069 4.666047 3.415501 0.427270 -0.007790 0.122310 17.951604 -8.706628 2.827884 0.196539 1.596335 -28.779214 3.486091 -1.639890 0.087305 0.217495 -1.627350 4.156436 0.102490 0.643050 0.164720 -2.229882 -6.493737 -7.078034 2.181495 -11.556471 6.128979 -10.251325 -11.119093 3.007084 2.847308 -7.375555 -6.799026 -16.223906 13.492237 21.235839 4.645160 5.827540 -1.010620 -11.106092 8.503771 -2.979416 -64.269132 -15.226658 8.169149 -57.916360 -25.444994 13.086459 -3.785349 3.531097 0.395920 0.360160 -0.394540 0.397960 6.290851 -8.802721 5.879206 58.098497 -27.353907 -17.896663 40.963735 17.792845 1.035288 1.691825 -1.510010 -0.324870 0.286000 -0.036540 -0.172240 
-0.052590 16.985140 -1.440210 -0.384116 -7.709728 6.295445 -15.771669 14.010825 3.233197 -0.820885 0.087478 -1.856726 -7.934983 4.583976 0.394564 -0.249212 4.629955 3.417168 0.434480 0.008440 0.137370 17.970209 -8.689276 2.845659 0.775995 1.712505 -29.283821 3.786967 -1.689325 0.566530 0.212745 -1.581570 4.156735 0.102320 0.627040 0.173010 -2.269690 -6.485810 -7.067392 2.471676 -11.604343 6.267861 -10.250509 -11.212318 2.744394 2.671691 -7.553480 -6.707450 -16.722876 14.472951 21.154551 4.470330 6.869350 -1.108010 -11.017432 8.592115 -2.739192 -64.252777 -14.748394 7.392873 -56.352093 -25.939007 12.670796 -3.786016 3.527003 0.394590 0.353380 -0.375160 0.393020 6.545763 -8.870577 5.247091 59.320303 -25.726635 -17.666539 36.218726 13.599748 -0.473869 1.805819 -1.403115 -0.310220 0.273360 -0.044920 -0.171810 
-0.062540 16.991870 -1.455760 -0.384867 -9.366199 6.018058 -15.751399 14.025034 3.264552 -1.119463 0.152917 -1.650150 -7.947499 4.577178 0.335790 -0.245227 4.588501 3.399537 0.466040 0.048500 0.175500 17.984932 -8.703555 2.848017 1.123129 1.725995 -29.513766 4.087095 -1.808654 1.375053 0.183223 -1.522429 4.153093 0.105700 0.564880 0.177920 -2.312256 -6.499544 -7.096857 2.591968 -11.741914 6.962457 -10.332413 -11.416647 2.284959 2.524399 -7.842947 -6.714933 -17.701527 15.351877 21.630030 4.437160 7.745250 -2.431570 -11.335204 8.469673 -2.508049 -63.988168 -14.388987 6.790315 -55.268545 -27.019245 12.699789 -3.744055 3.513855 0.435730 0.307670 -0.320590 0.379240 7.171713 -8.723181 4.693334 60.674467 -23.968992 -17.431143 31.851762 11.383534 -1.060484 1.905163 -1.304646 -0.286450 0.257030 -0.060680 -0.184680 
-0.063470 16.995860 -1.466050 -0.541063 -10.362391 5.890042 -15.715773 14.028010 3.269363 -1.360563 0.229194 -1.537499 -7.625668 4.539681 0.295861 -0.265159 4.548439 3.402712 0.481840 0.067680 0.190200 18.017133 -8.732169 2.848506 1.488309 1.757224 -29.904730 4.219939 -1.926599 2.306357 0.174904 -1.481951 4.164276 0.114030 0.546220 0.172110 -2.407743 -6.460438 -7.092767 3.243677 -12.011260 7.401715 -10.900591 -11.724995 2.013547 2.510316 -7.948621 -6.735944 -18.099929 16.083192 21.772693 4.683190 8.343900 -3.156470 -11.633746 8.167778 -2.323482 -63.626926 -14.374657 6.527752 -54.510974 -28.491795 13.063083 -3.727908 3.493715 0.462980 0.290040 -0.300310 0.377810 7.470820 -8.651344 4.306027 61.811728 -22.583355 -17.110483 29.442137 10.290927 -1.232552 1.952036 -1.248401 -0.288660 0.266690 -0.065480 -0.194890 
-0.067880 16.994500 -1.478500 -0.509738 -11.086500 5.880473 -15.704386 14.007444 3.277244 -1.562166 0.233039 -1.548569 -7.715517 4.532465 0.254770 -0.275221 4.545853 3.407395 0.489510 0.072210 0.206970 18.031103 -8.751500 2.845411 1.850587 1.838769 -30.580169 3.984891 -1.999706 3.325885 0.176873 -1.432566 4.175205 0.119200 0.546750 0.167390 -2.442781 -6.394219 -7.074846 3.288224 -12.059236 7.429275 -11.054802 -11.784822 2.155906 2.382717 -7.839493 -6.698969 -17.860854 16.511515 21.930454 4.904040 8.764630 -3.476530 -11.673362 7.949626 -2.082003 -63.624156 -14.136666 6.091715 -54.239562 -29.687890 13.376598 -3.727341 3.475603 0.476790 0.285070 -0.293220 0.378530 7.723159 -8.569141 3.942816 63.288908 -21.199788 -17.038144 27.317642 9.919293 -1.281748 1.993358 -1.214183 -0.297930 0.282220 -0.069610 -0.201950 
-0.074450 16.989380 -1.483760 -0.512998 -11.509110 5.925085 -15.696404 13.990110 3.268363 -1.664355 0.253807 -1.554985 -7.672138 4.538044 0.304496 -0.278497 4.550232 3.422397 0.476330 0.063130 0.191290 18.042396 -8.768552 2.847518 2.140416 1.956100 -31.150737 3.712602 -2.049066 4.175273 0.196316 -1.420260 4.193148 0.121640 0.578150 0.161320 -2.470858 -6.323742 -7.043022 3.387926 -12.225153 7.243294 -10.952425 -11.996339 2.151357 2.236120 -7.707907 -6.530432 -17.449100 16.883363 21.901078 4.896900 9.201310 -2.860440 -11.972896 8.067164 -1.839029 -63.473800 -13.182316 5.451364 -55.021059 -31.233825 14.206689 -3.748161 3.467389 0.464010 0.309210 -0.311170 0.389820 8.309378 -8.792657 3.462297 63.866270 -19.848119 -16.627769 25.994454 10.261630 -1.163986 2.008060 -1.216360 -0.314180 0.298100 -0.068760 -0.197120 
-0.083700 16.983180 -1.487230 -0.460687 -11.948225 5.765183 -15.690720 13.998435 3.278486 -1.668218 0.280954 -1.403181 -7.768034 4.586795 0.453173 -0.254185 4.565780 3.415131 0.453790 0.042990 0.174760 18.042018 -8.791399 2.857610 2.327052 2.062448 -31.597496 3.562603 -2.145887 5.153988 0.202086 -1.407329 4.190274 0.100800 0.583390 0.172550 -2.471634 -6.290144 -7.058918 3.183760 -12.321972 7.459674 -10.578260 -12.165171 1.907846 2.172561 -7.641299 -6.496672 -17.290414 17.181904 22.180876 4.846710 9.636100 -2.489220 -12.498711 8.192652 -1.533409 -63.129891 -11.804037 4.493783 -56.084319 -33.231470 15.327723 -3.755047 3.478963 0.458240 0.313530 -0.307380 0.384610 9.031117 -8.915955 3.123503 64.229277 -18.762962 -16.459586 25.459074 11.841963 -0.826089 2.021049 -1.226918 -0.306350 0.285390 -0.058420 -0.189760 
-0.091890 16.976660 -1.498850 -0.291485 -12.698422 5.670520 -15.690060 14.008014 3.294006 -1.946778 0.326503 -1.428206 -7.775742 4.609894 0.647392 -0.260131 4.552963 3.418823 0.451400 0.032080 0.183350 18.035871 -8.803342 2.890373 2.580651 2.253441 -32.167014 3.261918 -2.181638 6.000546 0.209583 -1.374182 4.199725 0.095420 0.577210 0.165080 -2.453229 -6.267910 -7.096436 2.656068 -12.248046 7.864833 -9.826363 -12.185450 1.389713 1.977675 -7.627091 -6.420655 -17.258165 17.650900 22.347901 4.936290 10.155750 -2.358320 -13.155670 8.496519 -1.282672 -62.533508 -10.334836 3.737186 -58.171324 -35.675535 17.171404 -3.746513 3.487718 0.469880 0.306830 -0.307640 0.380300 10.208971 -9.126202 2.709038 63.918584 -17.664133 -16.070292 25.739043 14.343353 -0.261403 2.009318 -1.256217 -0.315400 0.284600 -0.059440 -0.200360 
